<svg xmlns="http://www.w3.org/2000/svg" xmlns:xlink="http://www.w3.org/1999/xlink" viewBox="0 0 1140.21 353.11"><defs><style>.cls-1{fill:#efb457;}.cls-2{fill:#f5d85e;}.cls-3{fill:#f1f1f1;}.cls-4{fill:url(#무제_그라디언트_2);}.cls-5{fill:url(#무제_그라디언트_2-2);}.cls-6{fill:url(#무제_그라디언트_2-3);}.cls-7{fill:url(#무제_그라디언트_2-4);}.cls-8{fill:url(#무제_그라디언트_2-5);}.cls-9{fill:#e99896;}.cls-10{fill:#474d4b;}.cls-11{fill:#b2b2b2;}.cls-12{fill:#fff;}</style><linearGradient id="무제_그라디언트_2" x1="316.53" y1="258.2" x2="1095.4" y2="258.2" gradientUnits="userSpaceOnUse"><stop offset="0" stop-color="#db6a93"/><stop offset="1" stop-color="#f0bf70"/></linearGradient><linearGradient id="무제_그라디언트_2-2" x1="316.53" y1="257.99" x2="1095.4" y2="257.99" xlink:href="#무제_그라디언트_2"/><linearGradient id="무제_그라디언트_2-3" x1="316.53" y1="259.04" x2="1095.4" y2="259.04" xlink:href="#무제_그라디언트_2"/><linearGradient id="무제_그라디언트_2-4" x1="316.53" y1="257.99" x2="1095.4" y2="257.99" xlink:href="#무제_그라디언트_2"/><linearGradient id="무제_그라디언트_2-5" x1="316.53" y1="259.88" x2="1095.4" y2="259.88" xlink:href="#무제_그라디언트_2"/></defs><g id="레이어_2" data-name="레이어 2"><g id="레이어_1-2" data-name="레이어 1"><path class="cls-1" d="M157.85,155.14c18-1.61,42,17.54,56.38,31-17.69,3.56-38.13,1.12-54.33-6.9a64.5,64.5,0,0,1-9.63-5.82c-.67-.49-1.33-1-2-1.52A22.49,22.49,0,0,1,157.85,155.14Z"/><rect class="cls-1" x="15.49" width="193.26" height="154.83" rx="34.25"/><rect class="cls-2" x="28.89" y="15.25" width="166.47" height="129.4" rx="22.11"/><path class="cls-3" d="M331.33,3.59c-.15,2.37-.15,4.58-.15,6.65,9,.15,17.89.15,27,0-.14-2.21-.14-4.43-.14-6.65h27c-.44,20.69-.44,34.28,0,56.6h-27c0-2.36.14-4.73.14-7.09-14.92,5.46-36.79,7.68-53.93,7.83.44-24.09.44-33.25,0-57.34ZM310.79,64.47c22.9.45,87,.45,114.82,0-.29,12-.29,26.9,0,38.87H343.74v5h83.35V128c-35.62-.29-83.5-.29-116.16,0,.45-19.06.45-22.46,0-40.34C334.14,88,366.2,88,394,88V83.09h-83.2Zm20.24-35,.3,7.69c8.42-.15,19.95-1.48,27-4V29.6C349.21,29.45,340.2,29.31,331,29.45ZM438.76,44.08c-3.1-.29-9-.59-15.22-.73L424,60H395.91c.59-20.69.59-39.75,0-57.93H424c-.15,5-.3,10.05-.3,15.23a113.55,113.55,0,0,0,15.07-1Z"/><path class="cls-3" d="M567.36,127.73c-25.71-.59-94.58-.45-119.7,0V101.42l20.69.44-.44-16.25h29c-.3,4.28-.45,10.2-.45,16.4h21.43l-.44-16.4h29c-.29,4.28-.44,10.2-.44,16.25,8.57,0,16.11-.14,21.42-.44Zm-4-99.76c-36.65-.44-73.15-.44-109.81,0V2.11c36.66.44,73.16.44,109.81,0Zm0,52.32c-36.65-.44-73.15-.44-109.81,0V54.43l16,.29a83.5,83.5,0,0,1-4.88-19.95l29.11-2.36c.59,9,1.63,16.84,3.85,22.31h23c2.52-5.47,4-13.74,4.3-22.31l29.1,2.36a87.44,87.44,0,0,1-4.87,19.8c4.73,0,9.46,0,14.19-.14Z"/><path class="cls-3" d="M601.69,91.82c-3.69-18.63-.15-29.26,14.48-40,7-5.18,12.86-8.42,12.86-16.56,0-5.9-4.29-10.49-10-10.49-7.24,0-11.68,4.73-12.56,13.6l-27.64-2.81C580.26,4.18,603.17.93,619,.93c24.54,0,38,13.59,38,32.81,0,13.44-5.61,21.13-16.55,29.7-8,6.36-17.73,8.72-13.59,28.38Zm26.9,10.78c-.3,8.57-.3,19.22,0,27.78-9-.29-19.8-.29-28.82,0,.29-8.56.29-19.21,0-27.78C608.79,102.9,619.58,102.9,628.59,102.6Z"/><path class="cls-4" d="M342.72,170.83c-.2,3.36-.2,6.51-.2,9.45,12.81.21,25.41.21,38.43,0-.21-3.15-.21-6.3-.21-9.45h38.44c-.63,29.4-.63,48.72,0,80.44H380.74c0-3.36.21-6.72.21-10.08-21.21,7.77-52.3,10.92-76.66,11.13.63-34.23.63-47.26,0-81.49Zm-29.2,86.53c32.57.63,123.72.63,163.21,0-.42,17-.42,38.23,0,55.24H360.37v7.15H478.83v27.93c-50.62-.42-118.67-.42-165.09,0,.63-27.09.63-31.92,0-57.34,33,.42,78.56.42,118,.42v-6.93H313.52Zm28.78-49.78.42,10.92c12-.2,28.36-2.1,38.44-5.67v-5C368.14,207.58,355.33,207.37,342.3,207.58Zm153.13,20.8c-4.42-.42-12.82-.84-21.64-1l.63,23.73H434.51c.85-29.4.85-56.5,0-82.34h39.91c-.21,7.15-.42,14.29-.42,21.64,9-.21,17-.63,21.43-1.47Z"/><path class="cls-5" d="M646.7,347.26c.41-10.29.63-28.14.84-48.73-4,0-8,.21-11.77.21L640,313.65c-27.94,16-79.61,27.52-129,33.61l-9.25-42.43c8.62-.42,17.65-1.05,26.68-1.89-5.88-19.95-11.56-48.52-12.39-75.19l39.69-4.84c.22,27.52,1.69,56.3,5.68,76.25,4-.42,7.77-1.05,11.76-1.68,2.94-22.89,4-47.89,4-74.14l39.07,3.57c.63,20.16-3.57,43.69-7.56,62.8a190.65,190.65,0,0,0,22.05-7.77V255.26l16.81.63V237.62c-5.68,0-11.35.21-16.81.42V196l16.6.63-.63-27.94h39.9c-1.05,27.94-1.26,144.73,0,178.54Zm-19.54-136.1c-36.55-.85-81.91-.63-117.62,0V170.62c35.71.83,83,1.26,117.62,0Z"/><path class="cls-6" d="M873.59,347.26c-36.55-.84-134.43-.63-170.14,0V309.87c10.5.22,26.88.63,45.58.63,0-21-.21-41.58-.63-64.69h40.75c-.63,23.11-.63,44.11-.63,64.91,33.81.2,67.64-.22,85.07-.85ZM813.1,280.05c6.09-23.11,8.19-50.83,8.19-71.84-35.29,0-72,0-107.34.63v-38c47.89.62,100.82.62,148.71,0,1.06,57.76-9.24,98.72-16,116.15Z"/><path class="cls-7" d="M879.92,313c41-27.52,52.51-66.8,55.24-103.77-14.07,0-27.93.21-41.16.42V169.77c35.7.85,77.5,1.27,112.16,0v39.91c-10.71-.21-21.43-.42-32.35-.42-.21,4-.63,7.78-1,11.77.21,41,14.07,66.37,42.22,86.53.42-48.3.21-118-.63-138.84h39.91c-.42,11.35-.84,36.76-.84,65.54,10.08-.21,19.12-.63,23.95-1.47v43.69c-4.83-.42-14.29-.84-23.95-1.05,0,30,.21,58,.84,71.83h-39.91c.21-8,.63-20.37.63-35.07l-21.42,32.13c-18.28-15.54-32.56-32.13-41-53.56-12.82,24.58-29.62,42.43-46.85,54.4Z"/><path class="cls-8" d="M1105.13,295.8l-3.57-41.17-3.15-85.91H1140l-3,86.33-3.36,40.75Zm35.08,15.75c-.43,12.19-.43,27.31,0,39.49-12.82-.42-28.15-.42-41,0,.42-12.18.42-27.3,0-39.49C1112.06,312,1127.39,312,1140.21,311.55Z"/><path class="cls-1" d="M90.53,271.39l3.79,5.22,5.3-31h0c-6.39.06-11.12-.14-14.63-.95L80.7,267.11A10.56,10.56,0,0,1,90.53,271.39Z"/><path class="cls-1" d="M127.86,244.79h0l5.4,34,15-10.32-4.55-26.38h0a40.52,40.52,0,0,1-14.33,2.68Z"/><path class="cls-9" d="M48.05,335.05l-1.32,5.12a10.35,10.35,0,0,0,10,12.94h32.6a6.94,6.94,0,0,0,6.92-6.36l1-11.7Z"/><path class="cls-2" d="M101.08,290.3a10.56,10.56,0,0,0-2-7.13l-8.56-11.78a10.6,10.6,0,0,0-16.67-.61L62.09,284.7a10.61,10.61,0,0,0-2.17,4.2L48.05,335.05H97.28Z"/><path class="cls-2" d="M160.81,270.6c-1-4.61-5.78-6.79-9.42-4.28l-19.82,13.62a16.31,16.31,0,0,0-6.8,13.48v41.63h49.69Z"/><path class="cls-9" d="M174.46,335.05H124.77v13.81a4.07,4.07,0,0,0,3.87,4.25h38.69c5.6,0,9.74-5.73,8.47-11.73Z"/><path class="cls-9" d="M83.46,171.55a26.61,26.61,0,0,1,0,3c24,16.51,57.87,10.38,82.84-6.92-2.58-9.81-7.88-12.77-7.88-12.77H73.9A22.5,22.5,0,0,1,83.46,171.55Z"/><path class="cls-2" d="M166.32,167.6c-25,17.3-58.83,23.43-82.84,6.92a31.27,31.27,0,0,1-2.79,11.07c-2.13,4.83-6,9.69-10.64,14.29l-.59,6.9s3.45,25.59,8.17,33.17,17.35,5.58,51.78,4.8C163.57,244,164,213.4,167.13,188,168.24,179.15,167.62,172.53,166.32,167.6Z"/><path class="cls-1" d="M83.46,171.55c-.65.52-1.31,1-2,1.52a64,64,0,0,1-9.63,5.82c-16.19,8-36.64,10.46-54.32,6.9-7.59,7.06-12.59,12.57-12.59,12.57l.16.18.07-.06a52.62,52.62,0,0,1,52.65,11.81,119.71,119.71,0,0,0,12.24-10.41c4.66-4.6,8.51-9.46,10.64-14.29a31.27,31.27,0,0,0,2.79-11.07A26.61,26.61,0,0,0,83.46,171.55Z"/><path class="cls-2" d="M73.9,154.83c-18-1.61-42,17.53-56.38,31,17.68,3.56,38.13,1.11,54.32-6.9a64,64,0,0,0,9.63-5.82c.68-.5,1.34-1,2-1.52A22.5,22.5,0,0,0,73.9,154.83Z"/><path class="cls-2" d="M200.84,224.15c21.93,0,27.16-11.72,28.41-17.23h-57C174.06,217.35,178.7,224.16,200.84,224.15Z"/><path class="cls-10" d="M74.09,93.75h0A13.81,13.81,0,0,1,60.28,79.93h0A13.81,13.81,0,0,1,74.09,66.12h0A13.81,13.81,0,0,1,87.9,79.93h0A13.81,13.81,0,0,1,74.09,93.75Z"/><path class="cls-10" d="M150.16,93.75h0a13.81,13.81,0,0,1-13.81-13.82h0a13.81,13.81,0,0,1,13.81-13.81h0A13.81,13.81,0,0,1,164,79.93h0A13.81,13.81,0,0,1,150.16,93.75Z"/><path class="cls-10" d="M113.34,114a73.35,73.35,0,0,1-26.73-5.12,3.26,3.26,0,0,1,2.58-6c.25.1,24.06,10.11,45.79,0a3.26,3.26,0,0,1,2.74,5.91A57.57,57.57,0,0,1,113.34,114Z"/><polygon class="cls-9" points="208.76 39.32 208.76 120.58 222.88 105.85 222.88 56.11 208.76 39.32"/><polygon class="cls-9" points="15.49 39.32 15.49 120.58 1.37 105.85 1.37 56.11 15.49 39.32"/><polygon class="cls-11" points="182.78 140.02 162.57 198.31 253.42 198.31 273.64 140.02 182.78 140.02"/><rect class="cls-11" x="123.77" y="198.31" width="129.66" height="8.61"/><path class="cls-2" d="M5.16,198.48S34.26,187,59.42,211.8s16.2,28.3,6.53,38.95c-16.21,17.83-19.86,19.05-49-9.32S5.16,198.48,5.16,198.48Z"/><path class="cls-9" d="M79.71,0h64.82a0,0,0,0,1,0,0V26A13.34,13.34,0,0,1,131.2,39.32H93.05A13.34,13.34,0,0,1,79.71,26V0A0,0,0,0,1,79.71,0Z"/><path class="cls-12" d="M225.88,176.29c-3.95,3.13-9.35,2.89-12.06-.54s-1.68-8.73,2.28-11.85,9.36-2.89,12.06.53S229.84,173.16,225.88,176.29Z"/></g></g></svg>