<svg xmlns="http://www.w3.org/2000/svg" viewBox="0 0 1141.21 355.11"><defs><style>.cls-1{fill:#efb457;}.cls-2{fill:#f5d85e;}.cls-3{fill:#f1f1f1;}.cls-4{fill:#474d4b;}.cls-5{fill:#e99896;}.cls-6{fill:none;stroke:#fff;stroke-miterlimit:10;stroke-width:2px;}.cls-7{fill:#b2b2b2;}.cls-8{fill:#fff;}</style></defs><g id="레이어_2" data-name="레이어 2"><g id="레이어_1-2" data-name="레이어 1"><path class="cls-1" d="M158.85,156.14c18-1.61,42,17.54,56.38,31-17.69,3.56-38.13,1.12-54.33-6.9a64.5,64.5,0,0,1-9.63-5.82c-.67-.49-1.33-1-2-1.52A22.49,22.49,0,0,1,158.85,156.14Z"/><rect class="cls-1" x="16.5" y="1" width="193.26" height="154.83" rx="34.25"/><rect class="cls-2" x="29.89" y="16.25" width="166.47" height="129.4" rx="22.11"/><path class="cls-3" d="M332.33,4.59c-.15,2.37-.15,4.58-.15,6.65,9,.15,17.89.15,27,0-.14-2.21-.14-4.43-.14-6.65h27c-.44,20.69-.44,34.28,0,56.6h-27c0-2.36.14-4.73.14-7.09-14.92,5.46-36.79,7.68-53.93,7.83.44-24.09.44-33.25,0-57.34ZM311.79,65.47c22.9.45,87,.45,114.83,0-.3,12-.3,26.9,0,38.87H344.74v5h83.35V129c-35.61-.29-83.49-.29-116.16,0,.45-19.06.45-22.46,0-40.34C335.14,89,367.2,89,395,89V84.09h-83.2Zm20.25-35,.29,7.69c8.42-.15,19.95-1.48,27-4V30.6C350.21,30.45,341.2,30.31,332,30.45ZM439.77,45.08c-3.11-.29-9-.59-15.23-.74L425,61H396.91c.59-20.69.59-39.75,0-57.93H425c-.15,5-.3,10.05-.3,15.23a113.87,113.87,0,0,0,15.08-1Z"/><path class="cls-3" d="M568.37,128.73c-25.71-.59-94.58-.45-119.7,0V102.42l20.68.44-.44-16.25h29c-.3,4.28-.45,10.2-.45,16.4h21.43l-.44-16.4h29c-.29,4.28-.44,10.2-.44,16.25,8.57,0,16.11-.14,21.43-.44Zm-4-99.76c-36.65-.44-73.15-.44-109.8,0V3.11c36.65.44,73.15.44,109.8,0Zm0,52.32c-36.65-.44-73.15-.44-109.8,0V55.43l16,.29a83.5,83.5,0,0,1-4.88-19.95l29.12-2.36c.59,9,1.62,16.84,3.84,22.31h23c2.51-5.47,4-13.74,4.29-22.31l29.1,2.36a87.44,87.44,0,0,1-4.87,19.8c4.73,0,9.46,0,14.19-.14Z"/><path class="cls-3" d="M602.69,92.82c-3.69-18.63-.14-29.26,14.48-40,7-5.18,12.86-8.43,12.86-16.56,0-5.9-4.29-10.49-10-10.49-7.24,0-11.68,4.73-12.56,13.6l-27.63-2.81C581.26,5.18,604.17,1.93,620,1.93c24.54,0,38,13.59,38,32.81,0,13.44-5.61,21.13-16.55,29.7-8,6.36-17.73,8.72-13.59,28.38Zm26.9,10.78c-.3,8.57-.3,19.22,0,27.78-9-.29-19.8-.29-28.82,0,.29-8.56.29-19.21,0-27.78C609.79,103.9,620.58,103.9,629.59,103.6Z"/><path class="cls-4" d="M343.73,171.83c-.21,3.36-.21,6.51-.21,9.45,12.81.21,25.41.21,38.43,0-.21-3.15-.21-6.3-.21-9.45h38.44c-.63,29.4-.63,48.72,0,80.44H381.74c0-3.36.21-6.72.21-10.08-21.21,7.77-52.3,10.92-76.66,11.13.63-34.23.63-47.26,0-81.49Zm-29.2,86.53c32.56.63,123.71.63,163.2,0-.41,17-.41,38.23,0,55.24H361.37v7.15H479.83v27.93c-50.62-.42-118.67-.42-165.09,0,.63-27.09.63-31.92,0-57.34,33,.42,78.56.42,118,.42v-6.93H314.53Zm28.77-49.78.43,10.92c12-.2,28.35-2.1,38.43-5.67v-5C369.14,208.58,356.33,208.37,343.3,208.58Zm153.13,20.8c-4.42-.42-12.82-.84-21.64-1l.63,23.73H435.51c.85-29.4.85-56.5,0-82.34h39.91c-.21,7.14-.42,14.29-.42,21.64,9-.21,17-.63,21.43-1.47Z"/><path class="cls-4" d="M647.7,348.26c.41-10.29.63-28.14.84-48.73-4,0-8,.21-11.77.21L641,314.65c-27.94,16-79.61,27.52-129,33.61l-9.24-42.43c8.61-.42,17.64-1.05,26.67-1.89-5.88-19.95-11.55-48.52-12.39-75.19l39.7-4.84c.21,27.52,1.68,56.3,5.67,76.25,4-.42,7.77-1.05,11.76-1.68,2.94-22.89,4-47.89,4-74.14l39.07,3.57c.63,20.16-3.57,43.69-7.56,62.8a190.65,190.65,0,0,0,22.05-7.77V256.26l16.81.63V238.62c-5.68,0-11.35.21-16.81.42V197l16.6.63-.63-27.94h39.9c-1.05,27.94-1.26,144.73,0,178.54Zm-19.53-136.1c-36.56-.85-81.92-.63-117.63,0V171.62c35.71.83,83,1.26,117.63,0Z"/><path class="cls-4" d="M874.59,348.26c-36.55-.84-134.43-.63-170.14,0V310.87c10.5.22,26.88.63,45.58.63,0-21-.21-41.58-.63-64.69h40.75c-.63,23.11-.63,44.11-.63,64.91,33.81.2,67.64-.22,85.07-.85ZM814.1,281.05c6.09-23.11,8.19-50.83,8.19-71.84-35.29,0-72,0-107.34.63v-38c47.89.62,100.82.62,148.71,0,1.06,57.76-9.23,98.72-16,116.15Z"/><path class="cls-4" d="M880.92,314c41-27.52,52.51-66.8,55.24-103.77-14.07,0-27.93.21-41.16.42V170.77c35.7.85,77.5,1.27,112.16,0v39.91c-10.71-.21-21.42-.42-32.35-.42-.21,4-.63,7.78-1,11.77.21,41,14.07,66.37,42.22,86.53.42-48.3.21-118-.63-138.84h39.91c-.42,11.35-.84,36.76-.84,65.54,10.08-.21,19.12-.63,23.95-1.47v43.69c-4.83-.42-14.29-.84-23.95-1.05,0,30,.21,58,.84,71.83h-39.91c.21-8,.63-20.37.63-35.07l-21.42,32.13c-18.28-15.54-32.56-32.13-41-53.56-12.82,24.58-29.62,42.43-46.84,54.4Z"/><path class="cls-4" d="M1106.13,296.8l-3.57-41.17-3.15-85.91H1141l-3,86.33-3.36,40.75Zm35.08,15.75c-.43,12.19-.43,27.31,0,39.49-12.82-.42-28.15-.42-41,0,.42-12.18.42-27.3,0-39.49C1113.06,313,1128.39,313,1141.21,312.55Z"/><path class="cls-1" d="M91.53,272.39l3.79,5.22,5.3-31h0c-6.39.06-11.12-.14-14.63-.95L81.7,268.11A10.56,10.56,0,0,1,91.53,272.39Z"/><path class="cls-1" d="M128.86,245.79h0l5.4,34,15-10.32-4.55-26.38h0a40.52,40.52,0,0,1-14.33,2.68Z"/><path class="cls-5" d="M49.05,336.05l-1.32,5.12a10.35,10.35,0,0,0,10,12.94h32.6a6.94,6.94,0,0,0,6.92-6.36l1-11.7Z"/><path class="cls-2" d="M102.08,291.3a10.56,10.56,0,0,0-2-7.13l-8.56-11.78a10.6,10.6,0,0,0-16.67-.61L63.09,285.7a10.61,10.61,0,0,0-2.17,4.2L49.05,336.05H98.28Z"/><path class="cls-2" d="M161.81,271.6c-1-4.61-5.77-6.79-9.42-4.28l-19.82,13.62a16.31,16.31,0,0,0-6.8,13.48v41.63h49.69Z"/><path class="cls-5" d="M175.46,336.05H125.77v13.81a4.07,4.07,0,0,0,3.87,4.25h38.69c5.6,0,9.74-5.73,8.47-11.73Z"/><path class="cls-5" d="M84.46,172.55a24.41,24.41,0,0,1,0,3c24,16.51,57.88,10.38,82.84-6.92-2.58-9.81-7.88-12.77-7.88-12.77H74.9A22.47,22.47,0,0,1,84.46,172.55Z"/><path class="cls-2" d="M167.32,168.6c-25,17.3-58.83,23.43-82.84,6.92a31.27,31.27,0,0,1-2.79,11.07c-2.13,4.83-6,9.69-10.64,14.29l-.59,6.9s3.45,25.59,8.17,33.17,17.35,5.58,51.78,4.8C164.57,245,165,214.4,168.13,189,169.24,180.15,168.62,173.53,167.32,168.6Z"/><path class="cls-1" d="M84.46,172.55c-.65.52-1.31,1-2,1.52a63.5,63.5,0,0,1-9.63,5.82c-16.19,8-36.64,10.46-54.32,6.9-7.59,7.06-12.59,12.57-12.59,12.57l.16.18.07-.06a52.62,52.62,0,0,1,52.65,11.81,119.71,119.71,0,0,0,12.24-10.41c4.66-4.6,8.51-9.46,10.64-14.29a31.27,31.27,0,0,0,2.79-11.07A24.41,24.41,0,0,0,84.46,172.55Z"/><path class="cls-2" d="M74.9,155.83c-18-1.61-41.95,17.53-56.38,31,17.68,3.56,38.13,1.11,54.32-6.9a63.5,63.5,0,0,0,9.63-5.82c.68-.5,1.34-1,2-1.52A22.47,22.47,0,0,0,74.9,155.83Z"/><path class="cls-2" d="M201.84,225.15c21.93,0,27.16-11.72,28.41-17.23h-57C175.06,218.35,179.7,225.16,201.84,225.15Z"/><path class="cls-4" d="M75.09,94.75h0A13.81,13.81,0,0,1,61.28,80.93h0A13.81,13.81,0,0,1,75.09,67.12h0A13.81,13.81,0,0,1,88.91,80.93h0A13.82,13.82,0,0,1,75.09,94.75Z"/><path class="cls-4" d="M151.16,94.75h0a13.81,13.81,0,0,1-13.81-13.82h0a13.81,13.81,0,0,1,13.81-13.81h0A13.81,13.81,0,0,1,165,80.93h0A13.82,13.82,0,0,1,151.16,94.75Z"/><path class="cls-4" d="M114.34,115a73.35,73.35,0,0,1-26.73-5.12,3.26,3.26,0,0,1,2.59-6c.24.1,24,10.11,45.78,0a3.26,3.26,0,0,1,2.74,5.91A57.54,57.54,0,0,1,114.34,115Z"/><polygon class="cls-5" points="209.76 40.32 209.76 121.58 223.88 106.85 223.88 57.1 209.76 40.32"/><polygon class="cls-5" points="16.5 40.32 16.5 121.58 2.38 106.85 2.38 57.1 16.5 40.32"/><path class="cls-2" d="M6.16,199.48S35.26,188,60.42,212.8,76.63,241.1,67,251.75c-16.21,17.83-19.86,19.05-49-9.32S6.16,199.48,6.16,199.48Z"/><path class="cls-5" d="M80.71,1h64.82a0,0,0,0,1,0,0V27A13.34,13.34,0,0,1,132.2,40.32H94.05A13.34,13.34,0,0,1,80.71,27V1A0,0,0,0,1,80.71,1Z"/><path class="cls-6" d="M209.76,40.32V35.25A34.26,34.26,0,0,0,175.51,1H50.75A34.25,34.25,0,0,0,16.5,35.25v5.07L2.38,57.11v49.74L16.5,121.58h0a34.25,34.25,0,0,0,34.25,34.25H175.51a34.26,34.26,0,0,0,34.25-34.25h0l14.12-14.73V57.11Z"/><path class="cls-6" d="M175.46,336.05,161.81,271.6c-1-4.61-5.77-6.79-9.42-4.28l-3.1,2.13L144.85,243c19.91-8.12,20.65-32.85,23.28-54,.26-2.08.42-4,.5-5.86a88.72,88.72,0,0,0,47.92,4.1c-14.42-13.42-38.38-32.57-56.38-31h0a7,7,0,0,0-.72-.5H74.9c-18-1.61-41.95,17.53-56.38,31-7.59,7.06-12.59,12.57-12.59,12.57l.16.18h0c-1.16,1.05-16.27,15.58,11.82,42.89,29.18,28.37,32.83,27.15,49,9.32,5-5.55,9.88-9.17,9.8-14.88A23.23,23.23,0,0,0,78.63,241c1.51,2.41,3.82,3.85,7.36,4.67h0L81.7,268.11a10.47,10.47,0,0,0-6.84,3.67L63.09,285.7a10.61,10.61,0,0,0-2.17,4.2L49.05,336.05l-1.32,5.12a10.35,10.35,0,0,0,10,12.94h32.6a6.94,6.94,0,0,0,6.92-6.36l1-11.7,3.8-44.75a10.56,10.56,0,0,0-2-7.13l-4.25-5.85-.52-.71,5.3-31h0c7.14-.08,16.36-.49,28.25-.78l5.4,34-1.69,1.17a16.31,16.31,0,0,0-6.8,13.48v55.44a4.07,4.07,0,0,0,3.87,4.25h38.69c5.6,0,9.74-5.73,8.47-11.73ZM60.42,212.8c-.53-.53-1.07-1-1.61-1.51a119.71,119.71,0,0,0,12.24-10.41l-.59,6.9s1.64,12.15,4.2,22.19C72.33,225.62,67.89,220.15,60.42,212.8Z"/><path class="cls-6" d="M173.24,207.92c1.82,10.43,6.46,17.24,28.6,17.23,21.93,0,27.16-11.72,28.41-17.23Z"/><polygon class="cls-7" points="183.78 141.02 163.57 199.31 254.43 199.31 274.64 141.02 183.78 141.02"/><rect class="cls-7" x="124.77" y="199.31" width="129.66" height="8.61"/><polygon class="cls-6" points="183.78 141.02 163.57 199.31 124.77 199.31 124.77 207.92 254.43 207.92 254.43 199.31 274.64 141.02 183.78 141.02"/><path class="cls-8" d="M226.88,177.29c-3.95,3.13-9.35,2.89-12.06-.54s-1.68-8.73,2.28-11.85,9.36-2.89,12.06.53S230.84,174.16,226.88,177.29Z"/></g></g></svg>