<svg xmlns="http://www.w3.org/2000/svg" viewBox="0 0 276.04 355.11"><defs><style>.cls-1{fill:#efb457;}.cls-2{fill:#f5d85e;}.cls-3{fill:#e99896;}.cls-4{fill:#474d4b;}.cls-5{fill:none;stroke:#fff;stroke-miterlimit:10;stroke-width:2px;}.cls-6{fill:#b2b2b2;}.cls-7{fill:#fff;}</style></defs><g id="레이어_2" data-name="레이어 2"><g id="레이어_1-2" data-name="레이어 1"><path class="cls-1" d="M158.85,156.14c18-1.61,42,17.54,56.38,31-17.69,3.56-38.13,1.12-54.33-6.9a64.5,64.5,0,0,1-9.63-5.82c-.67-.49-1.33-1-2-1.52A22.49,22.49,0,0,1,158.85,156.14Z"/><rect class="cls-1" x="16.5" y="1" width="193.26" height="154.83" rx="34.25"/><rect class="cls-2" x="29.89" y="16.25" width="166.47" height="129.4" rx="22.11"/><path class="cls-1" d="M91.53,272.39l3.79,5.22,5.3-31h0c-6.39.06-11.12-.14-14.63-.95L81.7,268.11A10.56,10.56,0,0,1,91.53,272.39Z"/><path class="cls-1" d="M128.86,245.79h0l5.4,34,15-10.32-4.55-26.38h0a40.52,40.52,0,0,1-14.33,2.68Z"/><path class="cls-3" d="M49.05,336.05l-1.32,5.12a10.35,10.35,0,0,0,10,12.94h32.6a6.94,6.94,0,0,0,6.92-6.36l1-11.7Z"/><path class="cls-2" d="M102.08,291.3a10.56,10.56,0,0,0-2-7.13l-8.56-11.78a10.6,10.6,0,0,0-16.67-.61L63.09,285.7a10.61,10.61,0,0,0-2.17,4.2L49.05,336.05H98.28Z"/><path class="cls-2" d="M161.81,271.6c-1-4.61-5.77-6.79-9.42-4.28l-19.82,13.62a16.31,16.31,0,0,0-6.8,13.48v41.63h49.69Z"/><path class="cls-3" d="M175.46,336.05H125.77v13.81a4.07,4.07,0,0,0,3.87,4.25h38.69c5.6,0,9.74-5.73,8.47-11.73Z"/><path class="cls-3" d="M84.46,172.55a24.41,24.41,0,0,1,0,3c24,16.51,57.88,10.38,82.84-6.92-2.58-9.81-7.88-12.77-7.88-12.77H74.9A22.47,22.47,0,0,1,84.46,172.55Z"/><path class="cls-2" d="M167.32,168.6c-25,17.3-58.83,23.43-82.84,6.92a31.27,31.27,0,0,1-2.79,11.07c-2.13,4.83-6,9.69-10.64,14.29l-.59,6.9s3.45,25.59,8.17,33.17,17.35,5.58,51.78,4.8C164.57,245,165,214.4,168.13,189,169.24,180.15,168.62,173.53,167.32,168.6Z"/><path class="cls-1" d="M84.46,172.55c-.65.52-1.31,1-2,1.52a63.5,63.5,0,0,1-9.63,5.82c-16.19,8-36.64,10.46-54.32,6.9-7.59,7.06-12.59,12.57-12.59,12.57l.16.18.07-.06a52.62,52.62,0,0,1,52.65,11.81,119.71,119.71,0,0,0,12.24-10.41c4.66-4.6,8.51-9.46,10.64-14.29a31.27,31.27,0,0,0,2.79-11.07A24.41,24.41,0,0,0,84.46,172.55Z"/><path class="cls-2" d="M74.9,155.83c-18-1.61-41.95,17.53-56.38,31,17.68,3.56,38.13,1.11,54.32-6.9a63.5,63.5,0,0,0,9.63-5.82c.68-.5,1.34-1,2-1.52A22.47,22.47,0,0,0,74.9,155.83Z"/><path class="cls-2" d="M201.84,225.15c21.93,0,27.16-11.72,28.41-17.23h-57C175.06,218.35,179.7,225.16,201.84,225.15Z"/><path class="cls-4" d="M75.09,94.75h0A13.81,13.81,0,0,1,61.28,80.93h0A13.81,13.81,0,0,1,75.09,67.12h0A13.81,13.81,0,0,1,88.91,80.93h0A13.82,13.82,0,0,1,75.09,94.75Z"/><path class="cls-4" d="M151.16,94.75h0a13.81,13.81,0,0,1-13.81-13.82h0a13.81,13.81,0,0,1,13.81-13.81h0A13.81,13.81,0,0,1,165,80.93h0A13.82,13.82,0,0,1,151.16,94.75Z"/><path class="cls-4" d="M114.34,115a73.35,73.35,0,0,1-26.73-5.12,3.26,3.26,0,0,1,2.59-6c.24.1,24,10.11,45.78,0a3.26,3.26,0,0,1,2.74,5.91A57.54,57.54,0,0,1,114.34,115Z"/><polygon class="cls-3" points="209.76 40.32 209.76 121.58 223.88 106.85 223.88 57.1 209.76 40.32"/><polygon class="cls-3" points="16.5 40.32 16.5 121.58 2.38 106.85 2.38 57.1 16.5 40.32"/><path class="cls-2" d="M6.16,199.48S35.26,188,60.42,212.8,76.63,241.1,67,251.75c-16.21,17.83-19.86,19.05-49-9.32S6.16,199.48,6.16,199.48Z"/><path class="cls-3" d="M80.71,1h64.82a0,0,0,0,1,0,0V27A13.34,13.34,0,0,1,132.2,40.32H94.05A13.34,13.34,0,0,1,80.71,27V1A0,0,0,0,1,80.71,1Z"/><path class="cls-5" d="M209.76,40.32V35.25A34.26,34.26,0,0,0,175.51,1H50.75A34.25,34.25,0,0,0,16.5,35.25v5.07L2.38,57.11v49.74L16.5,121.58h0a34.25,34.25,0,0,0,34.25,34.25H175.51a34.26,34.26,0,0,0,34.25-34.25h0l14.12-14.73V57.11Z"/><path class="cls-5" d="M175.46,336.05,161.81,271.6c-1-4.61-5.77-6.79-9.42-4.28l-3.1,2.13L144.85,243c19.91-8.12,20.65-32.85,23.28-54,.26-2.08.42-4,.5-5.86a88.72,88.72,0,0,0,47.92,4.1c-14.42-13.42-38.38-32.57-56.38-31h0a7,7,0,0,0-.72-.5H74.9c-18-1.61-41.95,17.53-56.38,31-7.59,7.06-12.59,12.57-12.59,12.57l.16.18h0c-1.16,1.05-16.27,15.58,11.82,42.89,29.18,28.37,32.83,27.15,49,9.32,5-5.55,9.88-9.17,9.8-14.88A23.23,23.23,0,0,0,78.63,241c1.51,2.41,3.82,3.85,7.36,4.67h0L81.7,268.11a10.47,10.47,0,0,0-6.84,3.67L63.09,285.7a10.61,10.61,0,0,0-2.17,4.2L49.05,336.05l-1.32,5.12a10.35,10.35,0,0,0,10,12.94h32.6a6.94,6.94,0,0,0,6.92-6.36l1-11.7,3.8-44.75a10.56,10.56,0,0,0-2-7.13l-4.25-5.85-.52-.71,5.3-31h0c7.14-.08,16.36-.49,28.25-.78l5.4,34-1.69,1.17a16.31,16.31,0,0,0-6.8,13.48v55.44a4.07,4.07,0,0,0,3.87,4.25h38.69c5.6,0,9.74-5.73,8.47-11.73ZM60.42,212.8c-.53-.53-1.07-1-1.61-1.51a119.71,119.71,0,0,0,12.24-10.41l-.59,6.9s1.64,12.15,4.2,22.19C72.33,225.62,67.89,220.15,60.42,212.8Z"/><path class="cls-5" d="M173.24,207.92c1.82,10.43,6.46,17.24,28.6,17.23,21.93,0,27.16-11.72,28.41-17.23Z"/><polygon class="cls-6" points="183.78 141.02 163.57 199.31 254.43 199.31 274.64 141.02 183.78 141.02"/><rect class="cls-6" x="124.77" y="199.31" width="129.66" height="8.61"/><polygon class="cls-5" points="183.78 141.02 163.57 199.31 124.77 199.31 124.77 207.92 254.43 207.92 254.43 199.31 274.64 141.02 183.78 141.02"/><path class="cls-7" d="M226.88,177.29c-3.95,3.13-9.35,2.89-12.06-.54s-1.68-8.73,2.28-11.85,9.36-2.89,12.06.53S230.84,174.16,226.88,177.29Z"/></g></g></svg>