<svg xmlns="http://www.w3.org/2000/svg" viewBox="0 0 273.64 353.11"><defs><style>.cls-1{fill:#efb457;}.cls-2{fill:#f5d85e;}.cls-3{fill:#e99896;}.cls-4{fill:#474d4b;}.cls-5{fill:#b2b2b2;}.cls-6{fill:#fff;}</style></defs><g id="레이어_2" data-name="레이어 2"><g id="레이어_1-2" data-name="레이어 1"><path class="cls-1" d="M157.85,155.14c18-1.61,42,17.54,56.38,31-17.69,3.56-38.13,1.12-54.33-6.9a64.5,64.5,0,0,1-9.63-5.82c-.67-.49-1.33-1-2-1.52A22.49,22.49,0,0,1,157.85,155.14Z"/><rect class="cls-1" x="15.49" width="193.26" height="154.83" rx="34.25"/><rect class="cls-2" x="28.89" y="15.25" width="166.47" height="129.4" rx="22.11"/><path class="cls-1" d="M90.53,271.39l3.79,5.22,5.3-31h0c-6.39.06-11.12-.14-14.63-.95L80.7,267.11A10.56,10.56,0,0,1,90.53,271.39Z"/><path class="cls-1" d="M127.86,244.79h0l5.4,34,15-10.32-4.55-26.38h0a40.52,40.52,0,0,1-14.33,2.68Z"/><path class="cls-3" d="M48.05,335.05l-1.32,5.12a10.35,10.35,0,0,0,10,12.94h32.6a6.94,6.94,0,0,0,6.92-6.36l1-11.7Z"/><path class="cls-2" d="M101.08,290.3a10.56,10.56,0,0,0-2-7.13l-8.56-11.78a10.6,10.6,0,0,0-16.67-.61L62.09,284.7a10.61,10.61,0,0,0-2.17,4.2L48.05,335.05H97.28Z"/><path class="cls-2" d="M160.81,270.6c-1-4.61-5.78-6.79-9.42-4.28l-19.82,13.62a16.31,16.31,0,0,0-6.8,13.48v41.63h49.69Z"/><path class="cls-3" d="M174.46,335.05H124.77v13.81a4.07,4.07,0,0,0,3.87,4.25h38.69c5.6,0,9.74-5.73,8.47-11.73Z"/><path class="cls-3" d="M83.46,171.55a26.61,26.61,0,0,1,0,3c24,16.51,57.87,10.38,82.84-6.92-2.58-9.81-7.88-12.77-7.88-12.77H73.9A22.5,22.5,0,0,1,83.46,171.55Z"/><path class="cls-2" d="M166.32,167.6c-25,17.3-58.83,23.43-82.84,6.92a31.27,31.27,0,0,1-2.79,11.07c-2.13,4.83-6,9.69-10.64,14.29l-.59,6.9s3.45,25.59,8.17,33.17,17.35,5.58,51.78,4.8C163.57,244,164,213.4,167.13,188,168.24,179.15,167.62,172.53,166.32,167.6Z"/><path class="cls-1" d="M83.46,171.55c-.65.52-1.31,1-2,1.52a64,64,0,0,1-9.63,5.82c-16.19,8-36.64,10.46-54.32,6.9-7.59,7.06-12.59,12.57-12.59,12.57l.16.18.07-.06a52.62,52.62,0,0,1,52.65,11.81,119.71,119.71,0,0,0,12.24-10.41c4.66-4.6,8.51-9.46,10.64-14.29a31.27,31.27,0,0,0,2.79-11.07A26.61,26.61,0,0,0,83.46,171.55Z"/><path class="cls-2" d="M73.9,154.83c-18-1.61-42,17.53-56.38,31,17.68,3.56,38.13,1.11,54.32-6.9a64,64,0,0,0,9.63-5.82c.68-.5,1.34-1,2-1.52A22.5,22.5,0,0,0,73.9,154.83Z"/><path class="cls-2" d="M200.84,224.15c21.93,0,27.16-11.72,28.41-17.23h-57C174.06,217.35,178.7,224.16,200.84,224.15Z"/><path class="cls-4" d="M74.09,93.75h0A13.81,13.81,0,0,1,60.28,79.93h0A13.81,13.81,0,0,1,74.09,66.12h0A13.81,13.81,0,0,1,87.9,79.93h0A13.81,13.81,0,0,1,74.09,93.75Z"/><path class="cls-4" d="M150.16,93.75h0a13.81,13.81,0,0,1-13.81-13.82h0a13.81,13.81,0,0,1,13.81-13.81h0A13.81,13.81,0,0,1,164,79.93h0A13.81,13.81,0,0,1,150.16,93.75Z"/><path class="cls-4" d="M113.34,114a73.35,73.35,0,0,1-26.73-5.12,3.26,3.26,0,0,1,2.58-6c.25.1,24.06,10.11,45.79,0a3.26,3.26,0,0,1,2.74,5.91A57.57,57.57,0,0,1,113.34,114Z"/><polygon class="cls-3" points="208.76 39.32 208.76 120.58 222.88 105.85 222.88 56.11 208.76 39.32"/><polygon class="cls-3" points="15.49 39.32 15.49 120.58 1.37 105.85 1.37 56.11 15.49 39.32"/><polygon class="cls-5" points="182.78 140.02 162.57 198.31 253.42 198.31 273.64 140.02 182.78 140.02"/><rect class="cls-5" x="123.77" y="198.31" width="129.66" height="8.61"/><path class="cls-2" d="M5.16,198.48S34.26,187,59.42,211.8s16.2,28.3,6.53,38.95c-16.21,17.83-19.86,19.05-49-9.32S5.16,198.48,5.16,198.48Z"/><path class="cls-3" d="M79.71,0h64.82a0,0,0,0,1,0,0V26A13.34,13.34,0,0,1,131.2,39.32H93.05A13.34,13.34,0,0,1,79.71,26V0A0,0,0,0,1,79.71,0Z"/><path class="cls-6" d="M225.88,176.29c-3.95,3.13-9.35,2.89-12.06-.54s-1.68-8.73,2.28-11.85,9.36-2.89,12.06.53S229.84,173.16,225.88,176.29Z"/></g></g></svg>